<svg width="37" height="37" viewBox="0 0 37 37" fill="none" xmlns="http://www.w3.org/2000/svg">
<g clip-path="url(#clip0_545_3806)">
<path d="M37 27.75C37 28.8404 36.5669 29.886 35.7959 30.657C35.0249 31.428 33.9792 31.8611 32.8889 31.8611H4.11111C3.02078 31.8611 1.9751 31.428 1.20412 30.657C0.433134 29.886 0 28.8404 0 27.75V9.25003C0 8.15969 0.433134 7.11401 1.20412 6.34303C1.9751 5.57205 3.02078 5.13892 4.11111 5.13892H32.8889C33.9792 5.13892 35.0249 5.57205 35.7959 6.34303C36.5669 7.11401 37 8.15969 37 9.25003V27.75Z" fill="#141414"/>
<path d="M0 13.3611H37V23.6389H0V13.3611Z" fill="#5B5F61"/>
<path d="M32.8889 5.13892H4.11111C3.02078 5.13892 1.9751 5.57205 1.20412 6.34303C0.433134 7.11401 0 8.15969 0 9.25003L0 13.3611H37V9.25003C37 8.15969 36.5669 7.11401 35.7959 6.34303C35.0249 5.57205 33.9792 5.13892 32.8889 5.13892Z" fill="#CE1225"/>
<path d="M15.1597 22.1609C15.1597 22.1609 15.1761 22.4178 15.4002 22.5463C15.4002 22.5463 15.3364 22.7395 15.5769 22.8516C15.8174 22.9636 16.6849 23.1404 18.1947 23.1404C19.7045 23.1404 20.5555 22.98 20.7806 22.867C21.0057 22.755 21.0211 22.498 21.0211 22.498C21.0211 22.498 21.2616 22.3695 21.2462 22.2092C21.2297 22.0489 20.9091 21.8721 20.9091 21.8721C20.9091 21.8721 20.8289 21.6635 20.6038 21.5833C20.3787 21.5031 19.6562 21.9368 18.2749 21.8721C16.8935 21.8084 16.1073 21.5987 15.8503 21.6152C15.5934 21.6316 15.4814 21.8885 15.4814 21.8885C15.4814 21.8885 15.1915 22.017 15.1597 22.1609Z" fill="#BF9300"/>
<path d="M15.3366 22.1455C15.3232 22.2411 15.5298 22.4508 15.5298 22.4508C15.5298 22.4508 15.5298 22.6913 15.7384 22.756C15.9471 22.8208 16.7981 22.9811 18.1794 22.9647C19.5607 22.9482 20.5402 22.868 20.6522 22.7714C20.7643 22.6748 20.8609 22.4662 20.8609 22.4662C20.8609 22.4662 21.0859 22.3058 21.0695 22.1774C21.0531 22.0489 20.7324 21.9687 20.7324 21.9687C20.7324 21.9687 20.6419 21.7755 20.5351 21.6953C20.4282 21.6152 19.7375 22.016 18.2596 22.016C16.8135 22.016 15.9789 21.6625 15.835 21.6789C15.6901 21.6953 15.5945 21.9677 15.5945 21.9677C15.5945 21.9677 15.353 22.0335 15.3366 22.1455Z" fill="#5B5F61"/>
<path d="M21.4385 15.9142C21.4385 15.9142 21.4066 15.1598 20.716 15.2554C20.0253 15.352 19.977 15.6891 19.238 15.7692L19.0859 15.7836C18.9627 15.4495 18.8946 15.0975 18.8845 14.7415C18.8845 14.2594 19.0294 14.0508 18.5309 13.8103C18.0335 13.5698 17.9369 13.7939 17.9369 13.7939C17.9369 13.7939 17.5515 13.6006 17.3747 13.7455C17.1979 13.8905 17.2945 14.2594 17.3747 14.1474C17.4548 14.0354 17.7765 14.356 17.7765 14.356C17.8855 14.8895 17.5761 15.4671 17.3644 15.7888C17.2914 15.7816 17.2328 15.7785 17.1506 15.7692C16.4116 15.6891 16.3633 15.352 15.6727 15.2554C14.982 15.1587 14.9501 15.9142 14.9501 15.9142L14.6768 21.7437L15.239 21.31L15.242 21.2411L16.4116 20.202L16.6069 20.0068L16.1228 21.422C16.1228 21.422 15.3839 21.3737 15.5925 21.9678C15.5925 21.9678 15.7045 21.6307 15.8978 21.6944C16.091 21.7581 16.6521 21.903 16.6521 21.903L16.8454 22.2083L17.0859 21.9832L17.8403 21.9513C17.8403 21.9513 18.0808 22.015 18.0653 22.2247C18.1095 22.1345 18.1229 22.0324 18.1034 21.9339L18.3305 21.9184C18.3061 22.0218 18.3185 22.1305 18.3655 22.2257C18.349 22.0171 18.5905 21.9523 18.5905 21.9523L19.3449 21.9842L19.5865 22.2093L19.7797 21.904C19.7797 21.904 20.3408 21.7591 20.533 21.6954C20.7252 21.6317 20.8383 21.9688 20.8383 21.9688C21.0469 21.3747 20.308 21.423 20.308 21.423L19.8465 20.0736L19.976 20.2031L21.1456 21.2422L21.1487 21.311L21.7109 21.7447L21.4385 15.9142ZM18.2452 19.4477C17.0869 18.7323 16.9913 16.9265 16.9913 16.9265C16.9913 16.9265 17.7077 16.8895 18.2277 16.5247C18.6964 16.9409 19.496 16.8936 19.496 16.8936C19.496 16.8936 19.4415 18.7066 18.2452 19.4477ZM20.8928 15.6901L19.9133 16.6213L19.7488 16.687C19.5803 16.6932 18.7601 16.6953 18.2431 16.2359C17.6008 16.686 16.7179 16.7179 16.7179 16.7179L16.5812 16.6634L15.4969 15.6901L15.2122 15.8073C15.2246 15.6911 15.2883 15.4301 15.6418 15.4815C16.2215 15.5647 16.461 15.8833 17.0715 15.947L17.2441 15.9645L17.1835 16.0426C17.2781 16.0426 17.4178 16.0149 17.5206 15.9923L17.6368 16.0036L17.5843 16.1865C17.6666 16.1619 17.7858 16.0909 17.8834 16.0282L18.1506 16.0539L18.2113 16.1382L18.4148 16.0365L18.5515 16.0231C18.6697 16.092 18.8382 16.1536 18.8382 16.1536L18.8701 15.9933C19.015 16.0899 19.2555 16.0899 19.2555 16.0899C19.2278 16.0673 19.2 16.0097 19.1712 15.9604L19.3192 15.945C19.9297 15.8813 20.1682 15.5627 20.7489 15.4794C21.1024 15.429 21.1661 15.6891 21.1785 15.8052L20.8928 15.6901Z" fill="#BF9300"/>
<path d="M17.8576 19.4157L17.2789 21.6151L16.3159 21.4229L17.3118 18.5966L17.8576 19.4157ZM18.576 19.4157L19.1536 21.6151L20.1177 21.4229L19.1218 18.5966L18.576 19.4157Z" fill="#5B5F61"/>
<path d="M17.2319 17.1033C17.2319 17.1033 17.3121 18.0345 17.7294 18.757V16.8947C17.7294 16.8947 17.456 17.055 17.2319 17.1033ZM19.2392 17.1352C19.2392 17.1352 19.159 18.0663 18.7417 18.7888V16.9265C18.7407 16.9265 19.0141 17.0868 19.2392 17.1352Z" fill="#BF9300"/>
<path d="M17.4238 13.9551C17.4238 13.9551 17.5359 13.8431 17.8576 14.0672C18.0662 14.2131 18.2512 14.3241 18.2512 14.3241C18.2512 14.3241 18.3827 14.1854 18.576 14.2172C18.7692 14.2491 18.6613 14.5173 18.6931 15.0785C18.725 15.6407 18.9501 15.8812 18.9501 15.8812L18.6767 15.7209L18.6931 15.8976L18.3879 15.7527L18.243 15.9614L18.0981 15.7363L17.8637 15.8791L17.7928 15.688L17.5194 15.8329C17.5194 15.8329 17.9213 15.3354 17.9531 14.7887C17.9624 14.6252 17.9213 14.2583 17.9213 14.2583C17.9213 14.2583 17.6654 13.9387 17.4238 13.9551Z" fill="#5B5F61"/>
<path d="M15.9788 22.2576C15.7948 22.3675 15.8668 22.4344 15.9788 22.4827C16.0908 22.531 16.7651 22.6122 18.131 22.643C19.5277 22.6749 20.3952 22.5145 20.5072 22.4498C20.6192 22.386 20.6357 22.273 20.4435 22.2411C20.2502 22.2093 19.2872 22.3696 18.1145 22.3696C16.6695 22.3706 16.059 22.2093 15.9788 22.2576Z" fill="#BF9300"/>
<path d="M32.8889 5.13892H4.11111C3.02078 5.13892 1.9751 5.57205 1.20412 6.34303C0.433134 7.11401 0 8.15969 0 9.25003L0 27.75C0 28.8404 0.433134 29.886 1.20412 30.657C1.9751 31.428 3.02078 31.8611 4.11111 31.8611H32.8889C33.9792 31.8611 35.0249 31.428 35.7959 30.657C36.5669 29.886 37 28.8404 37 27.75V9.25003C37 8.15969 36.5669 7.11401 35.7959 6.34303C35.0249 5.57205 33.9792 5.13892 32.8889 5.13892Z" fill="#006C35"/>
<path d="M9.16657 14.4403C9.81612 14.502 9.45743 13.3416 9.69279 13.1309C9.73698 13.0271 9.81921 13.0261 9.82537 13.1576V14.1423C9.81921 14.4629 10.0299 14.5564 10.1933 14.6233C10.3639 14.6099 10.477 14.6161 10.5438 14.7815L10.624 16.4856C10.624 16.4856 11.0186 16.5986 11.0371 15.5267C11.0567 14.8977 10.9117 14.3714 10.997 14.2491C11.0001 14.1289 11.1533 14.1217 11.2602 14.1803C11.4297 14.2995 11.5058 14.4475 11.7689 14.3889C12.1708 14.2789 12.4113 14.0837 12.4174 13.7753C12.3938 13.4824 12.3609 13.1895 12.2345 12.8966C12.252 12.8431 12.1574 12.7054 12.1749 12.652C12.2468 12.765 12.3568 12.7558 12.3815 12.652C12.3136 12.4269 12.2078 12.2111 12.0351 12.1175C11.8933 11.9921 11.6856 12.0178 11.6096 12.2789C11.5746 12.579 11.7185 12.9367 11.9364 13.2275C11.9827 13.3416 12.0485 13.5307 12.0197 13.7013C11.9035 13.7671 11.7864 13.7404 11.6898 13.6376C11.6898 13.6376 11.3701 13.3981 11.3701 13.3447C11.4554 12.802 11.3897 12.7404 11.3424 12.5903C11.3095 12.3827 11.2108 12.3159 11.1307 12.1741C11.0505 12.0898 10.9426 12.0898 10.8912 12.1741C10.7493 12.4187 10.8151 12.9449 10.9179 13.1803C10.9909 13.3961 11.1039 13.5328 11.0505 13.5328C11.0063 13.6551 10.9158 13.6263 10.8501 13.4855C10.7555 13.1936 10.737 12.7589 10.737 12.5626C10.7082 12.32 10.6774 11.801 10.5181 11.6694C10.4205 11.5368 10.2755 11.6006 10.2252 11.7229C10.2149 11.9634 10.2128 12.2049 10.2406 12.4279C10.3495 12.8174 10.3845 13.1607 10.4379 13.5605C10.4523 14.096 10.1286 13.7928 10.143 13.5276C10.218 13.1833 10.1985 12.6407 10.1316 12.5029C10.0792 12.3663 10.0165 12.3313 9.88909 12.3539C9.78837 12.3457 9.52732 12.6314 9.45332 13.1042C9.45332 13.1042 9.39062 13.3478 9.3639 13.5646C9.32793 13.8093 9.1676 13.9819 9.05454 13.5307C8.9569 13.2029 8.89729 12.394 8.73387 12.5831C8.68659 13.2152 8.63007 14.3273 9.16657 14.4403Z" fill="white"/>
<path d="M10.1443 14.9019C9.60987 14.9121 8.82774 15.6038 8.80615 15.9872C9.36937 15.7159 9.92335 15.4548 10.4968 15.1752C10.4043 15.0365 10.4917 14.9121 10.1443 14.9019Z" fill="white"/>
<path d="M13.0908 16.9749C13.3385 16.1496 13.0507 15.5411 13.1854 15.5442C13.4701 15.8515 13.8688 15.5853 13.9562 15.4784C13.9942 15.425 14.0877 15.39 14.1535 15.4599C14.3766 15.6202 14.7692 15.5442 14.8504 15.2626C14.9017 14.9797 14.9333 14.6937 14.9449 14.4064C14.763 14.463 14.6273 14.501 14.615 14.576L14.577 14.8206C14.5616 14.8998 14.4043 14.9029 14.3981 14.8021C14.3293 14.4887 14.0436 14.4476 13.8709 14.9337C13.7547 15.0282 13.5451 15.0467 13.5225 14.9059C13.5502 14.5801 13.4187 14.5359 13.1556 14.6891C13.0713 14.0426 12.986 13.4249 12.9017 12.7784C13.0117 12.7754 13.1124 12.8566 13.2121 12.7312C13.1021 12.3889 12.8698 11.69 12.7414 11.6397C12.6787 11.5636 12.6252 11.6109 12.544 11.6304C12.4063 11.6746 12.2778 11.7938 12.3179 12.0251C12.4813 13.0169 12.5882 13.7723 12.7506 14.7641C12.7753 14.8802 12.6787 15.0334 12.5533 15.018C12.3405 14.8741 12.2871 14.5822 11.9232 14.5945C11.6591 14.5976 11.358 14.8833 11.321 15.1598C11.2768 15.3787 11.2614 15.6172 11.321 15.8094C11.506 16.0314 11.729 16.0098 11.9232 15.9594C12.0826 15.8936 12.2151 15.7333 12.2706 15.7713C12.3087 15.8176 12.2799 16.3448 11.5183 16.7498C11.0568 16.9564 10.6899 17.0036 10.4926 16.6275C10.3703 16.3921 10.5018 15.4979 10.2007 15.7056C9.30961 18.0026 12.2871 18.3212 12.6201 15.8001C12.6519 15.6963 12.7773 15.5925 12.7989 15.7621C12.7301 18.0458 10.4957 18.2031 10.1164 17.4846C10.0219 17.3151 9.99411 16.9389 9.98486 16.7128C9.92833 16.2636 9.69297 16.4363 9.65597 16.8813C9.61794 17.129 9.62822 17.1989 9.62822 17.4363C9.74641 19.2401 12.6242 18.4651 13.0908 16.9749ZM11.9808 15.4147C11.9623 15.4496 11.8811 15.4352 11.8215 15.4352C11.7537 15.4322 11.7218 15.4209 11.6807 15.3664C11.6622 15.3047 11.7197 15.2461 11.7454 15.1999C11.7773 15.1454 11.9489 15.0889 12.0096 15.241C12.0208 15.2699 12.0241 15.3012 12.019 15.3318C12.0139 15.3623 12.0007 15.391 11.9808 15.4147Z" fill="white"/>
<path d="M13.9799 13.3704C14.1587 13.3046 15.0066 12.3354 15.0066 12.3354C14.9624 12.2974 14.9234 12.2697 14.8792 12.2316C14.8319 12.1905 14.837 12.1494 14.8792 12.1093C15.0889 11.987 15.022 11.7188 14.9121 11.5965C14.8409 11.5616 14.7626 11.5438 14.6834 11.5445C14.6042 11.5452 14.5262 11.5644 14.4557 11.6006C14.3088 11.7414 14.2738 11.9675 14.39 12.1093C14.503 12.1628 14.6161 12.2769 14.541 12.3396C14.1947 12.7096 13.245 13.3478 13.355 13.3704C13.3786 13.4012 13.9614 13.4002 13.9799 13.3704ZM14.6079 11.8483C14.6623 11.8349 14.7322 11.8832 14.7651 11.9552C14.798 12.0271 14.7805 12.096 14.7271 12.1093H14.725C14.6716 12.1227 14.6017 12.0744 14.5688 12.0024C14.5369 11.9295 14.5544 11.8616 14.6079 11.8483ZM9.10821 17.7374C8.96844 18.0221 8.90985 17.8269 8.89752 17.6676C8.88146 17.4 8.8949 17.1315 8.9376 16.8669C8.97255 16.6408 8.9376 16.7097 8.86566 16.8011C8.54808 17.3068 8.52033 18.0632 8.69608 18.2883C8.78858 18.3952 8.94171 18.4425 9.0558 18.4076C9.25519 18.3212 9.34255 17.9163 9.29527 17.7693C9.22744 17.6655 9.17502 17.6491 9.10821 17.7374ZM19.572 12.3848C19.9379 12.8761 20.2853 13.3766 20.6255 13.8864C20.6923 14.3283 20.7406 14.76 20.7694 15.1886C20.8259 16.0149 20.8424 16.9091 20.791 17.7796C20.9451 17.7857 21.1949 17.5288 21.2812 17.1537C21.3377 16.6346 21.2607 15.7107 21.2555 15.4044C21.2487 15.2124 21.2395 15.0206 21.2278 14.8288C21.6327 15.4907 22.0274 16.1834 22.4128 16.9532C22.5536 16.8875 22.5228 16.1002 22.4405 15.9892C22.1322 15.3283 21.7077 14.6747 21.5721 14.4239C21.5217 14.3314 21.3501 14.0683 21.1455 13.7671C21.128 13.5268 21.0992 13.2874 21.0592 13.0497C20.9955 12.6099 21.2411 13.0981 21.2072 12.8421C21.1281 12.4022 20.8835 12.1052 20.5977 11.7023C20.5052 11.5718 20.5083 11.5451 20.3655 11.7342C20.315 11.8475 20.2917 11.971 20.2976 12.0949C20.253 12.0294 20.2053 11.9659 20.1548 11.9048C19.9997 11.771 19.8438 11.638 19.6871 11.506C19.5833 11.432 19.3305 11.2984 19.2853 11.5204C19.2642 11.676 19.2719 11.8342 19.3079 11.987C19.3346 12.097 19.4939 12.2799 19.572 12.3848ZM20.3326 12.3601C20.3521 12.4454 20.3727 12.5307 20.386 12.6181L20.4014 12.7013C20.3583 12.6411 20.3134 12.5821 20.2668 12.5246C20.0982 12.3252 20.238 12.3683 20.3326 12.3601Z" fill="white"/>
<path d="M22.5278 17.1568C22.1701 17.5299 21.6542 17.9893 21.093 18.202C21.0324 18.2699 21.2431 18.5607 21.5144 18.5607C21.9697 18.5073 22.3705 18.2514 22.7416 17.5782C22.8412 17.4219 23.016 17.0859 23.0201 16.8248C23.054 15.2975 22.944 14.1084 22.7148 13.0045C22.6995 12.916 22.7037 12.8251 22.7272 12.7384C22.7559 12.7034 22.8567 12.7384 22.9101 12.652C22.9872 12.5719 22.7035 11.9141 22.5411 11.6612C22.4836 11.5482 22.4641 11.4721 22.3685 11.6746C22.2677 11.839 22.2009 12.1258 22.2092 12.393C22.426 13.8967 22.4928 15.2132 22.6347 16.7169C22.646 16.8618 22.6244 17.0735 22.5278 17.1568ZM28.5197 13.3437C28.5043 13.2368 28.457 12.9881 28.4755 12.9562C28.5043 12.8802 28.6533 12.9645 28.7068 12.8771C28.7849 12.798 28.3224 12.2039 28.161 11.9511C28.1024 11.838 28.0829 11.762 27.9873 11.9644C27.8866 12.1289 27.8517 12.4239 27.8917 12.6829C28.1333 14.316 28.3131 15.5432 28.3501 16.9913C28.3286 17.129 28.3244 17.203 28.2597 17.3757C28.1168 17.5586 27.9596 17.7868 27.8106 17.8978C27.6626 18.0078 27.347 18.1136 27.2432 18.1948C26.9174 18.385 26.9164 18.6018 27.1816 18.609C27.6358 18.5556 28.1744 18.5186 28.5454 17.9574C28.6451 17.8012 28.7633 17.3767 28.7684 17.1157C28.8024 15.5884 28.7489 14.4475 28.5197 13.3437ZM25.0756 14.6151C25.0797 14.4054 25.0993 14.1279 25.1106 13.9542C25.1157 13.8895 25.1311 13.8165 25.1928 13.8001C25.2555 13.7836 25.3665 13.8638 25.3675 13.7959C25.3552 13.6634 25.3285 13.466 25.2534 13.3725C25.1507 13.2204 24.8783 13.2574 24.83 13.4958C24.831 13.5842 24.8711 13.6315 24.8639 13.7117C24.8516 13.7569 24.8043 13.7877 24.6923 13.7343C24.7108 13.7178 24.6193 13.5914 24.6193 13.5914C24.5319 13.538 24.4148 13.5945 24.3397 13.6428C24.3126 13.6946 24.2964 13.7515 24.2922 13.8098C24.2879 13.8682 24.2957 13.9268 24.3151 13.982C24.4384 14.2153 24.8691 14.611 25.0756 14.6151Z" fill="white"/>
<path d="M24.9308 12.8278C25.2319 13.1967 25.5392 13.5709 25.8486 13.9511C25.9154 14.8001 25.9329 15.4949 25.9986 16.3438C25.9894 16.7035 25.8784 17.017 25.7725 17.0622C25.7725 17.0622 25.6132 17.1547 25.5063 17.053C25.4282 17.0211 25.1168 16.5339 25.1168 16.5339C24.9575 16.388 24.8527 16.4291 24.7396 16.5339C24.4272 16.8351 24.2864 17.4004 24.0746 17.7889C24.0191 17.8762 23.865 17.9502 23.6933 17.7827C23.2586 17.1876 23.5135 16.3417 23.46 16.5596C23.0725 16.9964 23.2432 17.719 23.3305 17.8752C23.458 18.1301 23.5618 18.2945 23.8105 18.4209C24.0366 18.5874 24.2134 18.4826 24.31 18.3665C24.5382 18.129 24.5412 17.5278 24.6481 17.4065C24.7221 17.1876 24.9123 17.2246 25.0037 17.3222C25.0875 17.4405 25.1986 17.5367 25.3275 17.6028C25.5402 17.7909 25.7941 17.8248 26.0439 17.6532C26.2145 17.5576 26.3265 17.4332 26.4262 17.1876C26.5372 16.8916 26.4765 15.5308 26.4539 14.7148C26.6132 14.9203 26.7684 15.1351 26.9257 15.3499C26.9945 16.0314 27.0336 16.7097 27.011 17.4024C26.9945 17.5412 27.494 16.9913 27.4899 16.7302C27.4879 16.5195 27.4899 16.3284 27.4899 16.1485C27.7304 16.5103 27.9648 16.8834 28.1847 17.278C28.3224 17.2061 28.2772 16.4301 28.1899 16.3232C27.936 15.8977 27.5979 15.4548 27.3645 15.1382C27.3491 15.0981 27.3409 15.0529 27.3224 15.0149C27.2289 14.798 27.2875 14.6233 27.2433 14.3931C27.2001 14.1618 27.2114 13.8165 27.1446 13.5421C27.1261 13.4352 27.0706 13.0919 27.087 13.06C27.1138 12.983 27.2165 13.0621 27.2669 12.9737C27.3419 12.8915 27.0069 12.023 26.8363 11.7743C26.7746 11.6633 26.6636 11.7013 26.5259 11.8822C26.3995 12.0014 26.4467 12.2728 26.495 12.5307C26.6153 13.1556 26.716 13.7548 26.8024 14.3479C26.6175 14.1021 26.4308 13.8579 26.2422 13.615L26.234 13.5698C26.234 13.5585 26.2062 13.0313 26.1816 12.9059C26.1775 12.8555 26.1651 12.8401 26.2186 12.8463C26.2751 12.8935 26.2823 12.8966 26.3183 12.9131C26.3758 12.9234 26.4262 12.8257 26.3923 12.7363L25.8609 11.7579C25.8188 11.7157 25.7633 11.6705 25.6965 11.7692C25.655 11.8054 25.6218 11.8501 25.5991 11.9003C25.5764 11.9505 25.5647 12.0049 25.5649 12.06C25.5814 12.2913 25.6214 12.5277 25.6369 12.7599L25.6595 12.8853C25.6358 12.8576 25.607 12.8226 25.5947 12.8103C25.1435 12.3355 25.8023 12.7332 25.5084 12.3663C25.2597 12.0929 25.1877 12.0076 24.9739 11.8432C24.867 11.7743 24.8023 11.6427 24.7674 11.8668C24.7498 12.0633 24.7446 12.2606 24.7519 12.4578C24.7519 12.5523 24.8475 12.725 24.9308 12.8278ZM15.7825 13.9367C16.0415 14.0436 16.207 13.5503 16.3139 13.0097C16.3858 12.8576 16.4413 12.8411 16.4783 12.9192C16.4691 13.6387 16.5297 13.798 16.7147 14.0169C17.1269 14.3355 17.4681 14.057 17.4958 14.0303L17.8165 13.7096C17.8874 13.6346 17.983 13.6294 18.0837 13.6962C18.1824 13.7846 18.169 13.9388 18.3787 14.0457C18.5555 14.1166 18.9337 14.0621 19.021 13.91C19.1392 13.7086 19.168 13.6387 19.2215 13.5626C19.3057 13.4506 19.4496 13.501 19.4496 13.5359C19.4363 13.5986 19.352 13.6613 19.4095 13.7733C19.5103 13.8484 19.5329 13.8 19.5925 13.7836C19.8022 13.6829 19.9584 13.2286 19.9584 13.2286C19.9676 13.059 19.8731 13.0734 19.8114 13.1084C19.7312 13.1567 19.7261 13.1731 19.6459 13.2224C19.5432 13.2379 19.3448 13.3057 19.2472 13.1536C19.1464 12.9706 19.1444 12.7157 19.0683 12.5318C19.0683 12.5184 18.9347 12.2409 19.0591 12.2234C19.1218 12.2347 19.2543 12.2697 19.2759 12.1587C19.3407 12.0497 19.1351 11.7394 18.9954 11.5821C18.873 11.4485 18.7035 11.432 18.54 11.5687C18.4249 11.6746 18.4414 11.7918 18.4188 11.9038C18.4001 11.9829 18.4001 12.0652 18.4189 12.1442C18.4376 12.2233 18.4745 12.2968 18.5267 12.3591C18.6408 12.5842 18.8494 12.875 18.7805 13.282C18.7805 13.282 18.6593 13.4753 18.4465 13.4506C18.3581 13.4311 18.2142 13.393 18.1382 12.8278C18.0806 12.3992 18.1526 11.8 17.9707 11.5194C17.9049 11.3498 17.8576 11.1864 17.6973 11.4762C17.6541 11.5903 17.4691 11.763 17.6037 12.1196C17.7137 12.3447 17.7579 12.7116 17.7086 13.1207C17.6325 13.2368 17.6161 13.2759 17.5164 13.392C17.3766 13.5421 17.2255 13.504 17.1094 13.4475C17.0004 13.3745 16.9162 13.3365 16.8668 13.1042C16.8761 12.7342 16.8966 12.1279 16.8288 11.9994C16.7291 11.8 16.5647 11.8719 16.4937 11.9326C16.1556 12.2419 15.9891 12.763 15.8873 13.1772C15.7938 13.4794 15.6941 13.393 15.6242 13.2707C15.4536 13.1104 15.4423 11.8596 15.2357 12.0662C14.9038 13.0056 15.4228 14.0375 15.7825 13.9367Z" fill="white"/>
<path d="M20.6965 15.9553L20.5978 15.8987L18.6645 15.8895C18.5648 15.8515 18.5947 15.8186 18.6645 15.7918C19.126 15.7292 19.9472 15.5955 20.0017 14.8072C19.9924 14.3972 19.8249 14.1279 19.3213 14.0539C18.9523 14.0827 18.6882 14.4413 18.7303 14.835C18.7128 14.9419 18.7653 15.1495 18.6573 15.1731C17.9472 15.2379 17.1732 15.6819 17.1475 16.0005C17.1044 16.0303 17.0078 15.944 17.0201 15.8083C16.9859 15.228 16.8189 14.6633 16.5319 14.1577C16.3078 13.9336 16.3777 14.0076 16.2277 14.1135C16.1311 14.2245 16.1136 14.3005 16.1187 14.5215C16.1187 14.5297 16.2996 15.0344 16.4528 15.3879C16.5545 15.7507 16.6501 16.1649 16.5812 16.5565C16.3428 17.0745 15.8628 17.5391 15.4003 17.7909C15.1619 17.868 14.9573 17.8402 14.907 17.7868C14.76 17.6881 14.7672 17.5062 14.7785 17.5031C15.168 17.2307 15.6141 17.0118 15.9635 16.279C16.0663 15.9995 16.0971 15.8299 15.9954 15.3972C15.9671 15.2447 15.897 15.1031 15.7929 14.9881C15.8556 14.947 16.0355 15.0837 16.0632 15.0025C16.0111 14.7657 15.8932 14.5484 15.723 14.3756C15.5843 14.2492 15.4332 14.2348 15.3058 14.3509C15.1619 14.4311 15.131 14.7168 15.1999 14.9676C15.276 15.1567 15.4825 15.1885 15.6305 15.5678C15.6305 15.576 15.684 15.8515 15.6079 15.9594C15.5473 16.1485 14.761 16.7662 14.7179 16.7939C14.6963 16.8207 14.7055 16.7806 14.7025 16.6778C14.6973 16.5524 14.7528 16.2564 14.7374 16.2543C14.4815 16.4198 14.3962 16.9265 14.3499 17.0766C13.7024 17.5237 12.9696 17.8567 12.5462 18.3109C12.3252 18.6552 14.0652 17.9152 14.2677 17.8258C14.3129 17.8587 14.3078 18.0139 14.4291 18.1527C14.61 18.3973 14.9923 18.5483 15.3674 18.4548C15.9944 18.2277 16.3572 17.8001 16.7251 17.3263C16.7775 17.2492 16.8598 17.1907 16.9358 17.2492C17.1887 17.8155 17.9194 18.2164 18.8619 18.2585C19.0808 17.9923 18.9749 17.8638 18.8865 17.8083C18.8865 17.8001 18.421 17.6233 18.35 17.4466C18.3069 17.2862 18.4117 17.1454 18.6214 17.0385C19.2267 16.9656 19.8218 16.8844 20.3984 16.6994C20.4046 16.5062 20.5166 16.2163 20.5937 16.0909C20.6677 15.9635 20.7078 16.0015 20.6965 15.9553ZM19.1065 14.7507C19.1353 14.7024 19.2308 14.7045 19.3203 14.7569C19.4097 14.8083 19.46 14.8905 19.4302 14.9388C19.4015 14.9881 19.3048 14.985 19.2154 14.9326C19.126 14.8812 19.0777 14.8 19.1065 14.7507ZM18.3285 16.7035C18.1208 16.7744 17.9215 16.8299 17.9215 17.13C17.9985 17.5473 17.8156 17.4044 17.7077 17.3469C17.5802 17.2554 17.2215 17.0344 17.1701 16.5575C17.1619 16.4435 17.2513 16.3479 17.3942 16.3479C17.609 16.4065 17.9266 16.4106 18.202 16.4393C18.4271 16.4537 18.5392 16.6305 18.3285 16.7035ZM11.1679 12.0733C11.3899 12.1802 11.8093 12.135 11.7908 11.7753C11.7908 11.7434 11.7825 11.6365 11.7795 11.6078C11.7342 11.5019 11.6109 11.5276 11.5821 11.6376C11.5729 11.6735 11.5975 11.7311 11.5657 11.7496C11.5472 11.7681 11.4763 11.7568 11.4793 11.6581C11.4793 11.6263 11.4557 11.5923 11.4423 11.5728C11.428 11.5636 11.4197 11.5605 11.394 11.5605C11.3632 11.5615 11.3632 11.5697 11.3468 11.5965C11.3396 11.6222 11.3293 11.6489 11.3293 11.6787C11.3252 11.7136 11.3118 11.726 11.2861 11.7321C11.2573 11.7321 11.2635 11.7352 11.2409 11.7198C11.2265 11.7044 11.209 11.6982 11.209 11.6725C11.209 11.6425 11.2041 11.6126 11.1947 11.5841C11.1823 11.5677 11.1628 11.5605 11.1402 11.5543C11.0189 11.5543 11.0107 11.6931 11.0179 11.7465C11.0066 11.7558 11.0025 12.0045 11.1679 12.0733Z" fill="white"/>
<path d="M17.9985 14.4167C17.9985 14.3848 17.9749 14.3519 17.9615 14.3314C17.9471 14.3221 17.9389 14.319 17.9132 14.319C17.8824 14.3201 17.8834 14.3283 17.8659 14.355C17.8587 14.3817 17.8485 14.4074 17.8485 14.4372C17.8454 14.4732 17.831 14.4855 17.8053 14.4907C17.7765 14.4907 17.7827 14.4938 17.759 14.4794C17.7447 14.464 17.7272 14.4578 17.7272 14.4321C17.7272 14.4021 17.7223 14.3722 17.7128 14.3437C17.7005 14.3273 17.6809 14.3201 17.6583 14.3149C17.537 14.3149 17.5288 14.4537 17.535 14.5061C17.5257 14.5164 17.5206 14.7641 17.6861 14.834C17.9091 14.9398 18.4384 14.8782 18.3089 14.5359C18.3067 14.4796 18.303 14.4234 18.2976 14.3674C18.2524 14.2615 18.128 14.2882 18.1003 14.3972C18.092 14.4331 18.1167 14.4907 18.0838 14.5092C18.0674 14.5277 17.9954 14.5164 17.9985 14.4167ZM21.4899 13.69C21.7119 13.7969 22.1302 13.7517 22.1117 13.393C22.1095 13.3367 22.1057 13.2805 22.1004 13.2245C22.0552 13.1186 21.9318 13.1453 21.9041 13.2543C21.8948 13.2902 21.9195 13.3478 21.8866 13.3663C21.8681 13.3848 21.7972 13.3745 21.8003 13.2748C21.8003 13.243 21.7766 13.209 21.7633 13.1895C21.7489 13.1803 21.7407 13.1772 21.7139 13.1772C21.6831 13.1792 21.6841 13.1864 21.6667 13.2132C21.6595 13.2399 21.6492 13.2656 21.6492 13.2954C21.6451 13.3314 21.6317 13.3437 21.606 13.3488C21.5772 13.3488 21.5834 13.3519 21.5598 13.3375C21.5454 13.3221 21.5289 13.3159 21.5289 13.2902C21.5288 13.2599 21.524 13.2297 21.5145 13.2008C21.5012 13.1844 21.4827 13.1772 21.459 13.172C21.3378 13.172 21.3295 13.3108 21.3367 13.3632C21.3295 13.3735 21.3244 13.6212 21.4899 13.69ZM21.6399 12.3005C21.7191 12.5225 21.5793 12.7342 21.6625 12.765C21.7376 12.8 21.8445 12.5359 21.8835 12.2923C21.9298 12.0949 21.789 11.691 21.5896 11.6078C21.4683 11.579 21.2956 11.6509 21.3511 11.8133C21.3234 11.8914 21.5957 12.1566 21.6399 12.3005ZM23.6903 17.5052C23.8455 17.5062 24.0244 17.1506 24.1004 16.798C24.1426 16.3129 24.0717 16.018 24.0593 15.7322C24.046 15.4475 23.7376 13.2738 23.6739 13.058C23.5989 12.6499 23.975 13.0035 23.9339 12.7661C23.8034 12.467 23.4797 12.0322 23.3769 11.7722C23.3152 11.6612 23.3419 11.5625 23.2042 11.7434C23.0778 12.1597 23.0336 12.4989 23.0819 12.7579C23.4087 14.464 23.7438 15.8823 23.6903 17.5052ZM27.5507 13.0446C27.5867 13.1556 27.4962 13.5143 27.5712 13.5472C27.6401 13.5842 27.7367 13.2995 27.7727 13.0354C27.7922 12.8904 27.6863 12.3848 27.5044 12.2943C27.3934 12.2635 27.2362 12.3406 27.2876 12.5174C27.2619 12.6027 27.5106 12.8884 27.5507 13.0446ZM14.0673 16.8022C14.1341 16.8299 14.2255 16.6202 14.2605 16.426C14.28 16.3191 14.1772 15.9481 14.0035 15.8813C13.8967 15.8587 13.7507 15.8874 13.7959 16.0457C13.7908 16.131 14.0323 16.2338 14.0467 16.4322C14.0817 16.5144 13.9953 16.7785 14.0673 16.8022ZM9.38471 12.059C9.41863 12.1443 9.35079 12.4166 9.42171 12.4423C9.48646 12.4711 9.57793 12.2532 9.61185 12.0528C9.63138 11.9418 9.61596 11.5656 9.35902 11.4885C9.25316 11.4649 9.10618 11.5235 9.15449 11.6581C9.12982 11.7219 9.34668 11.9397 9.38471 12.059ZM14.4229 13.2645C14.2266 13.3714 14.1495 13.688 14.2728 13.872C14.3869 14.0354 14.5678 13.9747 14.5925 13.9747C14.7857 13.9984 14.8998 13.613 14.8998 13.613C14.8998 13.613 14.9059 13.505 14.6767 13.7096C14.5801 13.7281 14.5678 13.6921 14.5442 13.6366C14.5208 13.536 14.5312 13.4305 14.574 13.3365C14.6068 13.2409 14.5328 13.1988 14.4229 13.2645ZM15.9049 12.0795C15.9366 12.0599 15.9638 12.0339 15.9847 12.0031C16.0056 11.9723 16.0197 11.9374 16.0262 11.9007C16.056 11.7506 15.8669 11.9716 15.8433 11.8041C15.8011 11.6489 15.9224 11.5852 16.0375 11.4351C16.0416 11.3313 16.0396 11.2583 15.8988 11.3426C15.8001 11.4094 15.6028 11.6129 15.5966 11.8472C15.5904 11.9798 15.5658 11.9788 15.6531 12.0631C15.7158 12.1545 15.7785 12.1453 15.9049 12.0795ZM17.24 12.1597C17.3675 11.8144 17.3675 11.6684 17.3767 11.5214C17.3377 11.2984 17.1866 11.3056 17.0869 11.5533C17.0437 11.6468 16.9933 12.1391 17.0016 12.1391C16.9677 12.2861 17.1547 12.3488 17.24 12.1597ZM25.637 14.6089C25.637 14.6089 24.6061 15.3417 24.5814 15.3674C24.4787 15.4578 24.53 15.7785 24.5814 15.7415C24.6544 15.7703 25.6914 15.0662 25.6709 14.984C25.7192 14.9861 25.7428 14.5719 25.637 14.6089ZM25.5105 16.5966C25.5794 16.6336 25.7613 16.4085 25.7541 16.1279C25.7747 15.983 25.7017 15.4517 25.5208 15.3612C25.4098 15.3304 25.2618 15.4249 25.3132 15.6007C25.2875 15.685 25.4407 15.9799 25.4807 16.1362C25.5167 16.2482 25.4355 16.5637 25.5105 16.5966ZM19.6728 18.1342C19.6728 18.1434 19.7601 18.2184 19.8629 18.1588C20.0787 18.0756 20.2144 17.9954 20.5166 17.9286C20.5957 17.9276 20.5906 17.7148 20.4652 17.7076C20.3018 17.7159 20.1497 17.7241 19.9862 17.8536C19.8855 17.8762 19.8691 17.8155 19.8465 17.76C19.8218 17.6234 19.903 17.5288 19.8855 17.427C19.8917 17.4332 19.792 17.3417 19.6902 17.3931C19.6851 17.3931 19.4631 17.5432 19.3922 17.648C19.348 17.6819 19.3531 17.7107 19.3665 17.7672C19.4004 17.8454 19.461 17.8217 19.5289 17.7847C19.6193 17.7724 19.6625 17.832 19.6553 17.9399C19.6121 18.0766 19.6728 18.127 19.6728 18.1342ZM26.4057 18.3048C26.3718 18.3634 26.3492 18.4517 26.454 18.4795C26.6473 18.534 27.0923 18.2441 27.0923 18.239C27.1642 18.1845 27.1406 18.0828 27.1344 18.0828C27.0923 18.0345 26.9977 18.0622 26.934 18.055C26.9042 18.055 26.8035 18.0396 26.8518 17.9512C26.8858 17.9036 26.9128 17.8513 26.932 17.796C26.9618 17.7292 26.9361 17.685 26.8271 17.649C26.7172 17.6285 26.673 17.6388 26.5507 17.649C26.4849 17.6634 26.4623 17.6922 26.4499 17.7724C26.4551 17.8937 26.528 17.8875 26.6041 17.9358C26.6483 17.9923 26.6771 18.0437 26.601 18.1352C26.5291 18.202 26.4787 18.239 26.4057 18.3048ZM26.2084 23.6389H24.6667V23.125C24.6667 22.9888 24.6126 22.858 24.5162 22.7617C24.4198 22.6653 24.2891 22.6112 24.1528 22.6112C24.0166 22.6112 23.8858 22.6653 23.7895 22.7617C23.6931 22.858 23.639 22.9888 23.639 23.125V23.6389H11.3056C11.3056 23.6389 11.3056 24.6667 14.389 24.6667H23.639V25.1806C23.639 25.3169 23.6931 25.4476 23.7895 25.544C23.8858 25.6403 24.0166 25.6945 24.1528 25.6945C24.2891 25.6945 24.4198 25.6403 24.5162 25.544C24.6126 25.4476 24.6667 25.3169 24.6667 25.1806V24.6667H25.6945V25.1806C25.6945 25.3169 25.7487 25.4476 25.845 25.544C25.9414 25.6403 26.0721 25.6945 26.2084 25.6945C26.3447 25.6945 26.4754 25.6403 26.5718 25.544C26.6681 25.4476 26.7223 25.3169 26.7223 25.1806V24.1528C26.7223 24.0165 26.6681 23.8858 26.5718 23.7894C26.4754 23.6931 26.3447 23.6389 26.2084 23.6389Z" fill="white"/>
</g>
<defs>
<clipPath id="clip0_545_3806">
<rect width="37" height="37" fill="white"/>
</clipPath>
</defs>
</svg>
